<svg xmlns="http://www.w3.org/2000/svg" width="19" height="19" viewBox="0 0 19 19">
    <path fill="#6D7BFA" fill-rule="nonzero" d="M15.935 0c-.79 0-1.581.317-2.135.87l-3.045 3.088H2.373A2.38 2.38 0 0 0 0 6.333v10.292A2.38 2.38 0 0 0 2.373 19h10.28a2.38 2.38 0 0 0 2.373-2.375V8.233l3.084-3.087a3.013 3.013 0 0 0 0-4.275A3.149 3.149 0 0 0 15.935 0zm-2.49 16.625a.794.794 0 0 1-.792.792H2.373a.794.794 0 0 1-.791-.792V6.333c0-.435.356-.791.79-.791h6.802l-2.729 2.73c-1.581 1.584-2.49 3.722-2.451 5.978 0 .435.356.792.79.792 2.255 0 4.39-.871 5.971-2.454l2.729-2.732v6.769h-.04zm3.519-12.588L9.569 11.44c-1.067 1.068-2.491 1.78-3.994 1.94.198-1.505.87-2.93 1.938-3.999l7.394-7.402c.594-.554 1.503-.475 2.057.08.514.593.514 1.424 0 1.978z"/>
</svg>
