<svg xmlns="http://www.w3.org/2000/svg" width="40" height="36" viewBox="0 0 40 36">
    <g fill="#6D7BFA" fill-rule="nonzero">
        <path d="M11.852 20.148a6.052 6.052 0 0 0-4.082-3.4V1.481a1.481 1.481 0 1 0-2.963 0v15.26c-.354.09-.701.21-1.037.355a6.104 6.104 0 0 0 1.037 11.482v5.496a1.481 1.481 0 0 0 2.963 0v-5.489a6.06 6.06 0 0 0 4.237-3.763c.577-1.516.52-3.2-.155-4.674zm-2.615 3.63A3.148 3.148 0 1 1 4.993 19.8a3.067 3.067 0 0 1 1.288-.281c1.239 0 2.363.724 2.875 1.851.353.758.388 1.625.096 2.408h-.015zM39.26 20.148a6.052 6.052 0 0 0-4.082-3.4V1.481a1.481 1.481 0 0 0-2.963 0v15.26c-.355.09-.702.21-1.037.355a6.104 6.104 0 0 0 1.037 11.482v5.496a1.481 1.481 0 0 0 2.963 0v-5.489a6.06 6.06 0 0 0 4.237-3.763c.576-1.516.52-3.2-.156-4.674zm-2.616 3.63a3.148 3.148 0 1 1-2.955-4.26c1.238 0 2.362.725 2.874 1.852.348.76.378 1.627.081 2.408zM22.148 7.407a7.084 7.084 0 0 0-.674-.207V1.481a1.481 1.481 0 0 0-2.963 0v5.741a6.119 6.119 0 0 0-4.081 8.445 6.074 6.074 0 0 0 3.407 3.2c.222.081.452.148.674.207v15a1.481 1.481 0 0 0 2.963 0V19.067a5.711 5.711 0 0 0 1.037-.356 6.104 6.104 0 0 0-.363-11.304zm.815 6.852a3.148 3.148 0 1 1-1.837-4.059 3.126 3.126 0 0 1 1.733 1.652c.356.756.393 1.623.104 2.407z"/>
    </g>
</svg>
