<svg xmlns="http://www.w3.org/2000/svg" width="34" height="34" viewBox="0 0 34 34">
    <g fill="none" fill-rule="evenodd">
        <path fill="#6D7BFA" fill-rule="nonzero" d="M29.02 4.98A17 17 0 0 0 17 0C7.611 0 0 7.611 0 17s7.611 17 17 17 17-7.611 17-17c0-4.509-1.79-8.833-4.98-12.02zM12.007 3.017l.192.382A5.355 5.355 0 0 0 17 6.375h1.063a3.188 3.188 0 0 1 0 6.375h-3.72a3.699 3.699 0 0 0-2.868 1.381c-.531.51-.786.744-1.381.744h-4.25a3.208 3.208 0 0 1-3.166-1.891 14.874 14.874 0 0 1 9.328-9.966zm2.869 28.687A14.875 14.875 0 0 1 2.125 17c-.022-.41-.022-.822 0-1.232A5.674 5.674 0 0 0 5.865 17h4.25a3.699 3.699 0 0 0 2.869-1.381c.531-.51.786-.744 1.381-.744h3.698a5.312 5.312 0 1 0 0-10.625H17a3.209 3.209 0 0 1-2.89-1.785c.95-.21 1.918-.324 2.89-.34 8.215 0 14.875 6.66 14.875 14.875h-3.187a3.699 3.699 0 0 0-2.87 1.381c-.53.51-.785.744-1.38.744h-4.25a3.188 3.188 0 0 0 0 6.375 1.063 1.063 0 0 1 0 2.125 4.781 4.781 0 0 0-5.313 4.08zm2.125.17c.213-1.317 1.318-2.125 3.103-2.125a3.188 3.188 0 0 0 0-6.375 1.063 1.063 0 0 1 0-2.125h4.25a3.699 3.699 0 0 0 2.868-1.381c.532-.51.786-.744 1.382-.744h3.017A14.875 14.875 0 0 1 17 31.875z"/>
        <circle cx="10.625" cy="23.375" r="2.125" fill="#6D7BFA" fill-rule="nonzero"/>
    </g>
</svg>
